<svg xmlns="http://www.w3.org/2000/svg" version="1.1" xmlns:xlink="http://www.w3.org/1999/xlink" width="512" height="512" x="0" y="0" viewBox="0 0 512 512" style="enable-background:new 0 0 512 512" xml:space="preserve"><g><circle cx="256" cy="256" r="256" style="" fill="#6e64c3" data-original="#6e64c3"></circle><path d="m405.21 129.405-70.646-28.547-124.44 120.581-75.183-57.035-28.518 14.259.366 150.674 180.73 180.73C414.032 494.532 512 386.712 512 256c0-6.947-.287-13.827-.83-20.635l-105.96-105.96z" style="" fill="#5046af" data-original="#5046af"></path><path d="m405.21 129.405-70.646-28.547-124.44 120.581-75.183-57.035-28.518 14.259.366 150.674 28.518 14.259 75.183-57.035 124.44 120.581 70.646-28.547-.366-249.19zM142.437 285.913v-63.825L177.718 254h.366l-35.647 31.913zm185.04 21.226L256.549 254h-.366l71.294-53.139v106.278z" style="" fill="#ffffff" data-original="#ffffff"></path></g></svg>